<svg xmlns="http://www.w3.org/2000/svg" xmlns:xlink="http://www.w3.org/1999/xlink" width="500" zoomAndPan="magnify" viewBox="0 0 375 374.999991" height="500" preserveAspectRatio="xMidYMid meet" version="1.0"><defs><clipPath id="c40dc596e8"><path d="M 23.769531 0 L 351.519531 0 L 351.519531 375 L 23.769531 375 Z M 23.769531 0 " clip-rule="nonzero"/></clipPath></defs><g clip-path="url(#c40dc596e8)"><path fill="#e9ca32" d="M 51.210938 335.722656 L 23.769531 0.621094 L 351.515625 1.296875 L 322.5 335.722656 L 188.878906 374.378906 Z M 51.210938 335.722656 " fill-opacity="1" fill-rule="nonzero"/></g><path fill="#ffde25" d="M 188.878906 342.015625 L 188.878906 32.535156 L 323.847656 32.984375 L 299.78125 309.875 Z M 188.878906 342.015625 " fill-opacity="1" fill-rule="nonzero"/><path fill="#ffffff" d="M 174.425781 69.28125 L 138.746094 69.28125 L 138.746094 275.265625 L 110.992188 269.980469 L 110.992188 242.253906 L 77.953125 236.972656 L 77.953125 299.03125 L 174.425781 324.117188 Z M 201.195312 69.28125 L 299.976562 69.28125 L 293.367188 108.761719 L 238.902344 108.761719 L 238.902344 173.546875 L 293.367188 173.546875 L 286.761719 304.3125 L 201.195312 324.117188 L 201.195312 283.1875 L 259.007812 263.378906 L 262.347656 209.246094 L 201.195312 218.089844 Z M 201.195312 69.28125 " fill-opacity="1" fill-rule="nonzero"/></svg>