<svg xmlns="http://www.w3.org/2000/svg" xmlns:xlink="http://www.w3.org/1999/xlink" width="500" zoomAndPan="magnify" viewBox="0 0 375 374.999991" height="500" preserveAspectRatio="xMidYMid meet" version="1.0"><defs><clipPath id="6f9cf4c1aa"><path d="M 278 294 L 288.527344 294 L 288.527344 300 L 278 300 Z M 278 294 " clip-rule="nonzero"/></clipPath><clipPath id="7a72e9de83"><path d="M 86.777344 273 L 113 273 L 113 375 L 86.777344 375 Z M 86.777344 273 " clip-rule="nonzero"/></clipPath></defs><path fill="#0074bd" d="M 153.480469 198.90625 C 153.480469 198.90625 143.648438 204.617188 160.484375 206.546875 C 180.878906 208.871094 191.304688 208.535156 213.773438 204.296875 C 213.773438 204.296875 219.691406 207.992188 227.945312 211.195312 C 177.558594 232.75 113.90625 209.945312 153.480469 198.90625 Z M 153.480469 198.90625 " fill-opacity="1" fill-rule="evenodd"/><path fill="#0074bd" d="M 147.320312 170.773438 C 147.320312 170.773438 136.292969 178.925781 153.140625 180.664062 C 174.929688 182.910156 192.128906 183.09375 221.914062 177.371094 C 221.914062 177.371094 226.023438 181.539062 232.496094 183.816406 C 171.582031 201.605469 103.734375 185.214844 147.320312 170.773438 Z M 147.320312 170.773438 " fill-opacity="1" fill-rule="evenodd"/><path fill="#ea2d2e" d="M 199.222656 123.046875 C 211.644531 137.324219 195.96875 150.160156 195.96875 150.160156 C 195.96875 150.160156 227.492188 133.914062 213.015625 113.5625 C 199.492188 94.589844 189.125 85.167969 245.253906 52.664062 C 245.253906 52.664062 157.144531 74.632812 199.222656 123.046875 Z M 199.222656 123.046875 " fill-opacity="1" fill-rule="evenodd"/><path fill="#0074bd" d="M 265.867188 219.71875 C 265.867188 219.71875 273.144531 225.707031 257.851562 230.339844 C 228.773438 239.132812 136.804688 241.785156 111.257812 230.691406 C 102.082031 226.699219 119.296875 221.167969 124.714844 220 C 130.363281 218.78125 133.589844 219.003906 133.589844 219.003906 C 123.375 211.824219 67.578125 233.105469 105.25 239.210938 C 207.980469 255.835938 292.507812 231.71875 265.867188 219.71875 Z M 265.867188 219.71875 " fill-opacity="1" fill-rule="evenodd"/><path fill="#0074bd" d="M 158.210938 141.621094 C 158.210938 141.621094 111.433594 152.71875 141.648438 156.75 C 154.40625 158.453125 179.832031 158.0625 203.527344 156.078125 C 222.890625 154.457031 242.320312 150.984375 242.320312 150.984375 C 242.320312 150.984375 235.496094 153.90625 230.558594 157.273438 C 183.050781 169.75 91.285156 163.9375 117.707031 151.183594 C 140.042969 140.394531 158.210938 141.621094 158.210938 141.621094 Z M 158.210938 141.621094 " fill-opacity="1" fill-rule="evenodd"/><path fill="#0074bd" d="M 242.125 188.449219 C 290.417969 163.402344 268.085938 139.328125 252.5 142.570312 C 248.691406 143.363281 246.980469 144.050781 246.980469 144.050781 C 246.980469 144.050781 248.402344 141.832031 251.105469 140.875 C 281.9375 130.058594 305.644531 172.792969 241.160156 189.71875 C 241.160156 189.71875 241.902344 189.046875 242.125 188.449219 Z M 242.125 188.449219 " fill-opacity="1" fill-rule="evenodd"/><path fill="#ea2d2e" d="M 213.015625 0.175781 C 213.015625 0.175781 239.753906 26.886719 187.648438 67.953125 C 145.859375 100.90625 178.121094 119.6875 187.632812 141.15625 C 163.238281 119.183594 145.347656 99.839844 157.347656 81.835938 C 174.972656 55.414062 223.804688 42.601562 213.015625 0.175781 Z M 213.015625 0.175781 " fill-opacity="1" fill-rule="evenodd"/><path fill="#0074bd" d="M 162.957031 256.347656 C 209.304688 259.304688 280.488281 254.699219 282.175781 232.804688 C 282.175781 232.804688 278.933594 241.105469 243.871094 247.691406 C 204.308594 255.125 155.507812 254.261719 126.574219 249.492188 C 126.574219 249.492188 132.5 254.390625 162.957031 256.347656 Z M 162.957031 256.347656 " fill-opacity="1" fill-rule="evenodd"/><g clip-path="url(#6f9cf4c1aa)"><path fill="#ea2d2e" d="M 280.035156 295.617188 L 278.621094 295.617188 L 278.621094 294.828125 L 282.425781 294.828125 L 282.425781 295.617188 L 281.019531 295.617188 L 281.019531 299.554688 L 280.035156 299.554688 Z M 287.625 295.816406 L 287.605469 295.816406 L 286.203125 299.554688 L 285.558594 299.554688 L 284.167969 295.816406 L 284.152344 295.816406 L 284.152344 299.554688 L 283.21875 299.554688 L 283.21875 294.828125 L 284.589844 294.828125 L 285.878906 298.171875 L 287.171875 294.828125 L 288.53125 294.828125 L 288.53125 299.554688 L 287.625 299.554688 Z M 287.625 295.816406 " fill-opacity="1" fill-rule="evenodd"/></g><path fill="#ea2d2e" d="M 155.363281 340.011719 C 150.996094 343.792969 146.371094 345.921875 142.222656 345.921875 C 136.316406 345.921875 133.109375 342.375 133.109375 336.703125 C 133.109375 330.5625 136.542969 326.066406 150.285156 326.066406 L 155.363281 326.066406 Z M 167.429688 353.597656 L 167.429688 311.535156 C 167.429688 300.78125 161.289062 293.6875 146.488281 293.6875 C 137.851562 293.6875 130.277344 295.820312 124.125 298.535156 L 125.894531 305.984375 C 130.742188 304.207031 137.011719 302.554688 143.167969 302.554688 C 151.695312 302.554688 155.363281 305.984375 155.363281 313.074219 L 155.363281 318.394531 L 151.101562 318.394531 C 130.386719 318.394531 121.042969 326.414062 121.042969 338.480469 C 121.042969 348.875 127.203125 354.785156 138.796875 354.785156 C 146.25 354.785156 151.820312 351.714844 157.019531 347.214844 L 157.964844 353.597656 Z M 167.429688 353.597656 " fill-opacity="1" fill-rule="evenodd"/><path fill="#ea2d2e" d="M 207.6875 353.597656 L 192.644531 353.597656 L 174.535156 294.761719 L 187.675781 294.761719 L 198.914062 330.917969 L 201.414062 341.777344 C 207.089844 326.066406 211.113281 310.113281 213.125 294.761719 L 225.902344 294.761719 C 222.488281 314.136719 216.320312 335.402344 207.6875 353.597656 Z M 207.6875 353.597656 " fill-opacity="1" fill-rule="evenodd"/><path fill="#ea2d2e" d="M 265.417969 340.011719 C 261.035156 343.792969 256.410156 345.921875 252.273438 345.921875 C 246.363281 345.921875 243.15625 342.375 243.15625 336.703125 C 243.15625 330.5625 246.597656 326.066406 260.328125 326.066406 L 265.417969 326.066406 Z M 277.488281 353.597656 L 277.488281 311.535156 C 277.488281 300.78125 271.328125 293.6875 256.539062 293.6875 C 247.894531 293.6875 240.324219 295.820312 234.167969 298.535156 L 235.941406 305.984375 C 240.792969 304.207031 247.070312 302.554688 253.222656 302.554688 C 261.742188 302.554688 265.417969 305.984375 265.417969 313.074219 L 265.417969 318.394531 L 261.15625 318.394531 C 240.4375 318.394531 231.09375 326.414062 231.09375 338.480469 C 231.09375 348.875 237.246094 354.785156 248.839844 354.785156 C 256.296875 354.785156 261.855469 351.714844 267.070312 347.214844 L 268.023438 353.597656 Z M 277.488281 353.597656 " fill-opacity="1" fill-rule="evenodd"/><g clip-path="url(#7a72e9de83)"><path fill="#ea2d2e" d="M 107.8125 363.597656 C 104.375 368.613281 98.816406 372.585938 92.734375 374.824219 L 86.777344 367.820312 C 91.410156 365.445312 95.378906 361.617188 97.222656 358.050781 C 98.816406 354.875 99.480469 350.789062 99.480469 341.015625 L 99.480469 273.832031 L 112.300781 273.832031 L 112.300781 340.089844 C 112.300781 353.164062 111.253906 358.449219 107.8125 363.597656 Z M 107.8125 363.597656 " fill-opacity="1" fill-rule="evenodd"/></g></svg>