<svg xmlns="http://www.w3.org/2000/svg" xmlns:xlink="http://www.w3.org/1999/xlink" width="500" zoomAndPan="magnify" viewBox="0 0 375 374.999991" height="500" preserveAspectRatio="xMidYMid meet" version="1.0"><defs><clipPath id="7ab5dcb6c6"><path d="M 1 20.429688 L 374 20.429688 L 374 354.929688 L 1 354.929688 Z M 1 20.429688 " clip-rule="nonzero"/></clipPath></defs><g clip-path="url(#7ab5dcb6c6)"><path fill="#6db33f" d="M 368.65625 167.605469 L 295.378906 40.667969 C 289.035156 29.644531 273.429688 20.59375 260.667969 20.59375 L 114.257812 20.59375 C 101.570312 20.59375 85.894531 29.644531 79.550781 40.667969 L 6.34375 167.605469 C 0 178.625 0 196.65625 6.34375 207.679688 L 79.550781 334.6875 C 85.894531 345.710938 101.496094 354.761719 114.257812 354.761719 L 260.742188 354.761719 C 273.429688 354.761719 289.035156 345.710938 295.449219 334.6875 L 368.65625 207.679688 C 375 196.65625 375 178.625 368.65625 167.605469 Z M 171.640625 90.816406 C 171.640625 82.492188 178.421875 75.707031 186.734375 75.707031 C 195.046875 75.707031 201.828125 82.492188 201.828125 90.816406 L 201.828125 181.109375 C 201.828125 189.429688 195.046875 196.21875 186.734375 196.21875 C 178.421875 196.21875 171.640625 189.429688 171.640625 181.109375 Z M 186.734375 283.59375 C 130.296875 283.59375 84.363281 237.605469 84.363281 181.109375 C 84.433594 148.699219 99.746094 118.261719 125.703125 98.84375 C 131.683594 94.390625 140.070312 95.632812 144.515625 101.617188 C 148.964844 107.605469 147.726562 115.996094 141.746094 120.449219 C 108.277344 145.339844 101.277344 192.714844 126.140625 226.21875 C 151.007812 259.722656 198.328125 266.730469 231.796875 241.839844 C 250.972656 227.605469 262.273438 205.050781 262.273438 181.109375 C 262.199219 157.09375 250.828125 134.539062 231.503906 120.230469 C 225.523438 115.851562 224.285156 107.382812 228.660156 101.398438 C 233.035156 95.414062 241.492188 94.171875 247.472656 98.550781 C 273.648438 117.894531 289.035156 148.554688 289.105469 181.109375 C 289.105469 237.679688 243.171875 283.59375 186.734375 283.59375 Z M 186.734375 283.59375 " fill-opacity="1" fill-rule="nonzero"/></g></svg>